<mxfile host="app.diagrams.net" modified="2021-10-20T05:45:53.560Z" agent="5.0 (Windows NT 10.0; Win64; x64) AppleWebKit/537.36 (KHTML, like Gecko) Chrome/89.0.4389.82 Safari/537.36" etag="Turrm1TmDW-ZyQWrYQXm" version="15.5.4" type="github">
  <diagram id="GYaTN1nSRISPJZuM1Gkw" name="第 1 页">
    <mxGraphModel dx="1865" dy="580" grid="1" gridSize="10" guides="1" tooltips="1" connect="1" arrows="1" fold="1" page="1" pageScale="1" pageWidth="827" pageHeight="1169" math="0" shadow="0">
      <root>
        <mxCell id="0" />
        <mxCell id="1" parent="0" />
        <mxCell id="tH4QWkxIS2ExQ86AvYCp-3" value="" style="rounded=1;whiteSpace=wrap;html=1;dashed=1;fillColor=#ffe6cc;strokeColor=#d79b00;" parent="1" vertex="1">
          <mxGeometry x="-440" y="510" width="1120" height="580" as="geometry" />
        </mxCell>
        <mxCell id="tH4QWkxIS2ExQ86AvYCp-1" value="" style="rounded=1;whiteSpace=wrap;html=1;dashed=1;fillColor=#f8cecc;strokeColor=#b85450;" parent="1" vertex="1">
          <mxGeometry x="-430" y="140" width="1240" height="350" as="geometry" />
        </mxCell>
        <mxCell id="3EbJK1v0618LVgEYujZU-3" style="edgeStyle=orthogonalEdgeStyle;rounded=0;orthogonalLoop=1;jettySize=auto;html=1;entryX=0.5;entryY=0;entryDx=0;entryDy=0;" parent="1" source="3EbJK1v0618LVgEYujZU-1" target="3EbJK1v0618LVgEYujZU-2" edge="1">
          <mxGeometry relative="1" as="geometry" />
        </mxCell>
        <mxCell id="3EbJK1v0618LVgEYujZU-1" value="shell：flink run" style="rounded=1;whiteSpace=wrap;html=1;" parent="1" vertex="1">
          <mxGeometry x="80" y="50" width="120" height="60" as="geometry" />
        </mxCell>
        <mxCell id="3EbJK1v0618LVgEYujZU-5" value="" style="edgeStyle=orthogonalEdgeStyle;rounded=0;orthogonalLoop=1;jettySize=auto;html=1;" parent="1" source="3EbJK1v0618LVgEYujZU-2" target="3EbJK1v0618LVgEYujZU-4" edge="1">
          <mxGeometry relative="1" as="geometry" />
        </mxCell>
        <mxCell id="3EbJK1v0618LVgEYujZU-2" value="CliFrontend" style="rounded=1;whiteSpace=wrap;html=1;" parent="1" vertex="1">
          <mxGeometry x="80" y="200" width="120" height="60" as="geometry" />
        </mxCell>
        <mxCell id="3EbJK1v0618LVgEYujZU-7" value="" style="edgeStyle=orthogonalEdgeStyle;rounded=0;orthogonalLoop=1;jettySize=auto;html=1;" parent="1" source="3EbJK1v0618LVgEYujZU-4" target="3EbJK1v0618LVgEYujZU-6" edge="1">
          <mxGeometry relative="1" as="geometry" />
        </mxCell>
        <mxCell id="3EbJK1v0618LVgEYujZU-8" value="用户代码中调用&lt;br&gt;env.execute()启动" style="edgeLabel;html=1;align=center;verticalAlign=middle;resizable=0;points=[];" parent="3EbJK1v0618LVgEYujZU-7" vertex="1" connectable="0">
          <mxGeometry x="-0.235" y="2" relative="1" as="geometry">
            <mxPoint as="offset" />
          </mxGeometry>
        </mxCell>
        <mxCell id="3EbJK1v0618LVgEYujZU-4" value="PackagedProgram&lt;br&gt;#invokeInteractiveModeForExecution()" style="rounded=1;whiteSpace=wrap;html=1;" parent="1" vertex="1">
          <mxGeometry x="494" y="200" width="246" height="60" as="geometry" />
        </mxCell>
        <mxCell id="3EbJK1v0618LVgEYujZU-10" value="" style="edgeStyle=orthogonalEdgeStyle;rounded=0;orthogonalLoop=1;jettySize=auto;html=1;" parent="1" source="3EbJK1v0618LVgEYujZU-6" target="3EbJK1v0618LVgEYujZU-9" edge="1">
          <mxGeometry relative="1" as="geometry" />
        </mxCell>
        <mxCell id="3EbJK1v0618LVgEYujZU-6" value="StreamExecutionEnvironment&lt;br&gt;#execute()" style="rounded=1;whiteSpace=wrap;html=1;" parent="1" vertex="1">
          <mxGeometry x="494" y="340" width="246" height="60" as="geometry" />
        </mxCell>
        <mxCell id="3EbJK1v0618LVgEYujZU-12" value="" style="edgeStyle=orthogonalEdgeStyle;rounded=0;orthogonalLoop=1;jettySize=auto;html=1;" parent="1" source="3EbJK1v0618LVgEYujZU-9" target="3EbJK1v0618LVgEYujZU-11" edge="1">
          <mxGeometry relative="1" as="geometry" />
        </mxCell>
        <mxCell id="3EbJK1v0618LVgEYujZU-9" value="YarnJobClusterExecutor&lt;br&gt;#execute()&lt;br&gt;&lt;div style=&quot;text-align: left&quot;&gt;1、生成JobGraph&lt;/div&gt;" style="rounded=1;whiteSpace=wrap;html=1;" parent="1" vertex="1">
          <mxGeometry x="210" y="340" width="246" height="60" as="geometry" />
        </mxCell>
        <mxCell id="3EbJK1v0618LVgEYujZU-14" value="" style="edgeStyle=orthogonalEdgeStyle;rounded=0;orthogonalLoop=1;jettySize=auto;html=1;" parent="1" source="3EbJK1v0618LVgEYujZU-11" target="3EbJK1v0618LVgEYujZU-13" edge="1">
          <mxGeometry relative="1" as="geometry" />
        </mxCell>
        <mxCell id="3EbJK1v0618LVgEYujZU-11" value="YarnClusterDescriptor&lt;br&gt;#deployJobCluster()&lt;br&gt;&lt;div style=&quot;text-align: left&quot;&gt;&lt;ul&gt;&lt;li style=&quot;text-align: left&quot;&gt;启动Yarn AppMaster&lt;/li&gt;&lt;li style=&quot;text-align: left&quot;&gt;返回RestClusterClient&lt;/li&gt;&lt;/ul&gt;&lt;/div&gt;" style="rounded=1;whiteSpace=wrap;html=1;align=center;" parent="1" vertex="1">
          <mxGeometry x="-103" y="290" width="192" height="160" as="geometry" />
        </mxCell>
        <mxCell id="3EbJK1v0618LVgEYujZU-16" value="" style="edgeStyle=orthogonalEdgeStyle;rounded=0;orthogonalLoop=1;jettySize=auto;html=1;" parent="1" source="3EbJK1v0618LVgEYujZU-13" target="3EbJK1v0618LVgEYujZU-15" edge="1">
          <mxGeometry relative="1" as="geometry" />
        </mxCell>
        <mxCell id="3EbJK1v0618LVgEYujZU-13" value="YarnClusterDescriptor&lt;br&gt;#startAppMaster()&lt;br&gt;&lt;div style=&quot;text-align: left&quot;&gt;&lt;ul&gt;&lt;li&gt;appContext设置amContainer&lt;br&gt;&lt;/li&gt;&lt;li&gt;startCommand设置class为&lt;b&gt;YarnJobClusterEntrypoint&lt;/b&gt;&lt;/li&gt;&lt;li&gt;yarnClient.submitApplication&lt;br&gt;&lt;/li&gt;&lt;/ul&gt;&lt;/div&gt;" style="rounded=1;whiteSpace=wrap;html=1;" parent="1" vertex="1">
          <mxGeometry x="-413" y="285" width="246" height="170" as="geometry" />
        </mxCell>
        <mxCell id="3EbJK1v0618LVgEYujZU-18" value="" style="edgeStyle=orthogonalEdgeStyle;rounded=0;orthogonalLoop=1;jettySize=auto;html=1;" parent="1" source="3EbJK1v0618LVgEYujZU-15" target="3EbJK1v0618LVgEYujZU-17" edge="1">
          <mxGeometry relative="1" as="geometry" />
        </mxCell>
        <mxCell id="3EbJK1v0618LVgEYujZU-15" value="YarnJobClusterEntrypoint&lt;br&gt;#main()&lt;br&gt;&lt;div style=&quot;text-align: left&quot;&gt;&lt;ul&gt;&lt;li&gt;Yarn per-job模式的入口类&lt;br&gt;&lt;/li&gt;&lt;/ul&gt;&lt;/div&gt;" style="rounded=1;whiteSpace=wrap;html=1;" parent="1" vertex="1">
          <mxGeometry x="-413" y="585" width="246" height="170" as="geometry" />
        </mxCell>
        <mxCell id="tH4QWkxIS2ExQ86AvYCp-7" style="edgeStyle=orthogonalEdgeStyle;rounded=0;orthogonalLoop=1;jettySize=auto;html=1;" parent="1" source="3EbJK1v0618LVgEYujZU-17" target="tH4QWkxIS2ExQ86AvYCp-5" edge="1">
          <mxGeometry relative="1" as="geometry" />
        </mxCell>
        <mxCell id="3EbJK1v0618LVgEYujZU-17" value="ClusterEntrypoint&lt;br&gt;#runClusterEntrypoint&lt;br&gt;&lt;div style=&quot;text-align: left&quot;&gt;&lt;ul&gt;&lt;li&gt;初始化服务:AkkaRpcService、haServices、heartbeatServices&lt;br&gt;&lt;/li&gt;&lt;li&gt;创建和启动 JobManager里的组件：Dispatcher、ResourceManager、JobMaster&lt;br&gt;&lt;/li&gt;&lt;/ul&gt;&lt;/div&gt;" style="rounded=1;whiteSpace=wrap;html=1;align=center;" parent="1" vertex="1">
          <mxGeometry x="-87" y="585" width="507" height="170" as="geometry" />
        </mxCell>
        <mxCell id="tH4QWkxIS2ExQ86AvYCp-2" value="CliFrontend进程&lt;br&gt;Client端" style="text;html=1;strokeColor=#b85450;fillColor=#f8cecc;align=center;verticalAlign=middle;whiteSpace=wrap;rounded=0;dashed=1;" parent="1" vertex="1">
          <mxGeometry x="-30" y="160" width="120" height="30" as="geometry" />
        </mxCell>
        <mxCell id="tH4QWkxIS2ExQ86AvYCp-4" value="Yarn" style="text;html=1;strokeColor=#d79b00;fillColor=#ffe6cc;align=center;verticalAlign=middle;whiteSpace=wrap;rounded=0;dashed=1;" parent="1" vertex="1">
          <mxGeometry x="110" y="540" width="40" height="20" as="geometry" />
        </mxCell>
        <mxCell id="tH4QWkxIS2ExQ86AvYCp-5" value="" style="rounded=1;whiteSpace=wrap;html=1;dashed=1;dashPattern=1 4;" parent="1" vertex="1">
          <mxGeometry x="-53.5" y="790" width="440" height="250" as="geometry" />
        </mxCell>
        <mxCell id="tH4QWkxIS2ExQ86AvYCp-8" value="ApplicationMaster" style="text;html=1;strokeColor=none;fillColor=none;align=center;verticalAlign=middle;whiteSpace=wrap;rounded=0;" parent="1" vertex="1">
          <mxGeometry x="146.5" y="810" width="40" height="20" as="geometry" />
        </mxCell>
        <mxCell id="yCZZeXJTaxYln5k1TXwi-1" style="edgeStyle=orthogonalEdgeStyle;rounded=0;orthogonalLoop=1;jettySize=auto;html=1;entryX=0.5;entryY=0;entryDx=0;entryDy=0;" edge="1" parent="1" source="tH4QWkxIS2ExQ86AvYCp-9" target="tH4QWkxIS2ExQ86AvYCp-13">
          <mxGeometry relative="1" as="geometry" />
        </mxCell>
        <mxCell id="yCZZeXJTaxYln5k1TXwi-2" value="启动jobmaster" style="edgeLabel;html=1;align=center;verticalAlign=middle;resizable=0;points=[];" vertex="1" connectable="0" parent="yCZZeXJTaxYln5k1TXwi-1">
          <mxGeometry x="-0.1073" y="-1" relative="1" as="geometry">
            <mxPoint as="offset" />
          </mxGeometry>
        </mxCell>
        <mxCell id="tH4QWkxIS2ExQ86AvYCp-9" value="Dispatcher" style="rounded=1;whiteSpace=wrap;html=1;" parent="1" vertex="1">
          <mxGeometry x="-20" y="840" width="120" height="60" as="geometry" />
        </mxCell>
        <mxCell id="tH4QWkxIS2ExQ86AvYCp-10" value="ResourceManager&lt;br&gt;&lt;br&gt;&lt;br&gt;" style="rounded=1;whiteSpace=wrap;html=1;" parent="1" vertex="1">
          <mxGeometry x="-20" y="930" width="120" height="100" as="geometry" />
        </mxCell>
        <mxCell id="tH4QWkxIS2ExQ86AvYCp-11" value="Yarn ResourceManager" style="rounded=1;whiteSpace=wrap;html=1;dashed=1;dashPattern=1 4;" parent="1" vertex="1">
          <mxGeometry x="-200" y="520" width="120" height="60" as="geometry" />
        </mxCell>
        <mxCell id="tH4QWkxIS2ExQ86AvYCp-12" value="SlotManager&lt;br&gt;（实时检查所需slot是否足够）" style="rounded=1;whiteSpace=wrap;html=1;dashed=1;dashPattern=1 4;" parent="1" vertex="1">
          <mxGeometry x="-15.5" y="985" width="111" height="40" as="geometry" />
        </mxCell>
        <mxCell id="tH4QWkxIS2ExQ86AvYCp-13" value="JobMaster&lt;br&gt;&lt;br&gt;&lt;br&gt;&lt;br&gt;&lt;div style=&quot;text-align: left&quot;&gt;1、生成ExecutionGraph&lt;/div&gt;" style="rounded=1;whiteSpace=wrap;html=1;" parent="1" vertex="1">
          <mxGeometry x="210" y="870" width="140" height="130" as="geometry" />
        </mxCell>
        <mxCell id="tH4QWkxIS2ExQ86AvYCp-14" value="SlotPool" style="rounded=1;whiteSpace=wrap;html=1;dashed=1;dashPattern=1 4;" parent="1" vertex="1">
          <mxGeometry x="235" y="920" width="90" height="30" as="geometry" />
        </mxCell>
        <mxCell id="tH4QWkxIS2ExQ86AvYCp-15" value="" style="rounded=1;whiteSpace=wrap;html=1;dashed=1;dashPattern=1 4;" parent="1" vertex="1">
          <mxGeometry x="-410" y="850" width="280" height="220" as="geometry" />
        </mxCell>
        <mxCell id="tH4QWkxIS2ExQ86AvYCp-16" value="YarnTaskExecutorRunner&lt;br&gt;（NodeManager）" style="text;html=1;strokeColor=none;fillColor=none;align=center;verticalAlign=middle;whiteSpace=wrap;rounded=0;dashed=1;dashPattern=1 4;" parent="1" vertex="1">
          <mxGeometry x="-290" y="860" width="40" height="20" as="geometry" />
        </mxCell>
        <mxCell id="tH4QWkxIS2ExQ86AvYCp-17" value="" style="rounded=1;whiteSpace=wrap;html=1;dashed=1;dashPattern=1 4;" parent="1" vertex="1">
          <mxGeometry x="-380" y="920" width="230" height="130" as="geometry" />
        </mxCell>
        <mxCell id="tH4QWkxIS2ExQ86AvYCp-18" value="TaskExecutor" style="text;html=1;strokeColor=none;fillColor=none;align=center;verticalAlign=middle;whiteSpace=wrap;rounded=0;dashed=1;dashPattern=1 4;" parent="1" vertex="1">
          <mxGeometry x="-290" y="925" width="40" height="20" as="geometry" />
        </mxCell>
        <mxCell id="tH4QWkxIS2ExQ86AvYCp-20" value="&lt;br&gt;&lt;br&gt;Slot&lt;br&gt;&lt;br&gt;&lt;br&gt;&lt;br&gt;&lt;br&gt;" style="rounded=1;whiteSpace=wrap;html=1;dashed=1;dashPattern=1 4;" parent="1" vertex="1">
          <mxGeometry x="-370" y="950" width="80" height="80" as="geometry" />
        </mxCell>
        <mxCell id="tH4QWkxIS2ExQ86AvYCp-21" value="Task" style="rounded=1;whiteSpace=wrap;html=1;dashed=1;dashPattern=1 4;" parent="1" vertex="1">
          <mxGeometry x="-362.5" y="990" width="65" height="30" as="geometry" />
        </mxCell>
        <mxCell id="tH4QWkxIS2ExQ86AvYCp-22" value="&lt;br&gt;&lt;br&gt;Slot&lt;br&gt;&lt;br&gt;&lt;br&gt;&lt;br&gt;&lt;br&gt;" style="rounded=1;whiteSpace=wrap;html=1;dashed=1;dashPattern=1 4;" parent="1" vertex="1">
          <mxGeometry x="-270" y="950" width="80" height="80" as="geometry" />
        </mxCell>
        <mxCell id="tH4QWkxIS2ExQ86AvYCp-23" value="Task" style="rounded=1;whiteSpace=wrap;html=1;dashed=1;dashPattern=1 4;" parent="1" vertex="1">
          <mxGeometry x="-262.5" y="990" width="65" height="30" as="geometry" />
        </mxCell>
        <mxCell id="tH4QWkxIS2ExQ86AvYCp-25" style="edgeStyle=orthogonalEdgeStyle;rounded=0;orthogonalLoop=1;jettySize=auto;html=1;entryX=0.5;entryY=1;entryDx=0;entryDy=0;" parent="1" source="tH4QWkxIS2ExQ86AvYCp-12" target="tH4QWkxIS2ExQ86AvYCp-11" edge="1">
          <mxGeometry relative="1" as="geometry" />
        </mxCell>
        <mxCell id="tH4QWkxIS2ExQ86AvYCp-26" value="申请资源" style="edgeLabel;html=1;align=center;verticalAlign=middle;resizable=0;points=[];" parent="tH4QWkxIS2ExQ86AvYCp-25" vertex="1" connectable="0">
          <mxGeometry x="0.1617" y="-3" relative="1" as="geometry">
            <mxPoint as="offset" />
          </mxGeometry>
        </mxCell>
        <mxCell id="tH4QWkxIS2ExQ86AvYCp-28" style="edgeStyle=orthogonalEdgeStyle;rounded=0;orthogonalLoop=1;jettySize=auto;html=1;exitX=1;exitY=0.5;exitDx=0;exitDy=0;entryX=1;entryY=0.5;entryDx=0;entryDy=0;" parent="1" source="tH4QWkxIS2ExQ86AvYCp-12" target="tH4QWkxIS2ExQ86AvYCp-14" edge="1">
          <mxGeometry relative="1" as="geometry" />
        </mxCell>
        <mxCell id="tH4QWkxIS2ExQ86AvYCp-30" style="edgeStyle=orthogonalEdgeStyle;rounded=0;orthogonalLoop=1;jettySize=auto;html=1;" parent="1" source="tH4QWkxIS2ExQ86AvYCp-14" target="tH4QWkxIS2ExQ86AvYCp-22" edge="1">
          <mxGeometry relative="1" as="geometry">
            <Array as="points">
              <mxPoint x="-80" y="935" />
              <mxPoint x="-80" y="990" />
            </Array>
          </mxGeometry>
        </mxCell>
      </root>
    </mxGraphModel>
  </diagram>
</mxfile>
